<svg width="810" height="1080" viewBox="0 0 810 1080" fill="none" xmlns="http://www.w3.org/2000/svg">
<path d="M314.5 540L277 581L331 553L335 557.5L337.5 720L341.5 731.5L368 726L370.5 581L390.5 557.5L442 581L393.5 517.5L382 452.5L354.5 100V82C355.5 80.5 357.5 77 357.5 75C357.5 73 355.5 70.1667 354.5 69V55.5L357.5 56.5L360.5 55.5V49.5L354.5 48V37L351.5 35L349.5 37V46.5L348 45.5H345V51L349.5 53V69C348.167 69.6667 345.4 71.8 345 75C344.6 78.2 347.833 81 349.5 82V102.5L325 454.5L314.5 509.5V540Z" fill="#FBFF49" fill-opacity="0.6" stroke="#FBFF49" stroke-width="4"/>
</svg>
