<svg width="1920" height="1080" viewBox="0 0 1920 1080" fill="none" xmlns="http://www.w3.org/2000/svg">
<g clip-path="url(#clip0)">
<path d="M946 619L960.5 629V699.5V735.5L967 744V778L971 788L979 1035.5L971 1040.5H954.5H937H924L913.5 1059L902 1063.5L890 1067.5L869.5 1063.5H859H849L831 1059L805 1063.5L794.5 1079.5L774 1083L523 1001V974L518 949.5L510 735.5L514.5 724L517 721V699.5L520.5 695.5L517 592.5L516 591.5V583.5L530 581L525 434L523 430.5L525 416.5L529 410.5L528 396H527L528 391.5L519 390.5V386L527.5 383V353.5L530 349.5L541.5 350L542.5 335L546.5 323.5L549 315V308.5H551.5V316.5L561 338.5L561.5 342.5L572 341L621 321.5L627.5 320L682 337.5L684 341.5L714 346L719 347.5V368H720.5V379L728.5 380.5V384L720.5 386.5V413L728.5 417L734.5 430V589H741.5L737 437.5H750V415.5V391L753.5 388L766.5 386.5L791 378L843.5 359L850.5 361V352.5L853.5 354V361L855.5 362.5L893 375L918.5 379.5L934 385L933 411.5L941.5 413V417L934 420.5V433L941.5 437.5L946 619Z" fill="#FBFF49" fill-opacity="0.6" stroke="#FBFF49" stroke-width="4"/>
</g>
<defs>
<clipPath id="clip0">
<rect width="1920" height="1080" fill="white"/>
</clipPath>
</defs>
</svg>
