<svg width="810" height="1080" viewBox="0 0 810 1080" fill="none" xmlns="http://www.w3.org/2000/svg">
<path d="M576.5 531.5L562 543L485 466L471.5 479L441 592L429.5 595L425 587L444.5 469.5L441 455.5L394 471.5L441 440.5L444.5 419.5L457 340.5L473.5 118.5C473.167 117.667 472.5 115.7 472.5 114.5C472.5 113.3 474.167 110.667 475 109.5L473.5 95L472.5 93.5V86.5H475V83.5H479.5V90.5L482.5 93.5V97.5L479.5 99.5C479.5 102.167 480.1 107.9 482.5 109.5C484.9 111.1 481.5 116.167 479.5 118.5V140.5L491 322L502.5 450.5L576.5 531.5Z" fill="#FBFF49" fill-opacity="0.6" stroke="#FBFF49" stroke-width="4"/>
</svg>
