<svg width="810" height="1080" viewBox="0 0 810 1080" fill="none" xmlns="http://www.w3.org/2000/svg">
<path d="M42.5 819V843V848.5L201 876.5C200.5 874.833 199.8 870.4 201 866C202.5 860.5 207.5 861.5 211 861C213.8 860.6 214.167 852.5 214 848.5L211 845C211 843.5 212 839.9 216 837.5C219.5 836.5 220.5 835.5 225.5 834C230.5 832.5 228 834 233 834C238 834 239.5 831.5 242 828.5C244.5 825.5 240 824.5 239.5 822.5C239 820.5 242 817.5 246 817.5C250 817.5 258 819 264 819.5C270 820 266 820.5 269.5 817.5C265 815 269 814.5 274 813.5C278 812.7 283.333 807.5 285.5 805C287 801.5 290.3 794.5 291.5 794.5C292.7 794.5 298.333 792.5 301 791.5L316.5 797L326.5 794.5L342 797L355 802.5L357.5 794.5L362 789H369.5V687L362 679V654L357.5 648V624V572L345 570V556V465L342.5 447.5L337.5 444.5V435H342.5V430H337.5V424.5V411.5L327.5 409L315 407.5L294 399L290.5 394L287.5 390L285.5 396L280 394L277.5 391.5L276.5 394L242.5 409L217.5 415.5V433H212.5V437L217.5 439.5V444.5L209 447.5V551L202 549V541.5L199 533L197 483V447.5L195 442L188.5 440.5V419.5H191H195L193 415.5H188.5L187 394L179 392.5H165.5L129.5 376.5L123 377.5L87.5 392.5H83V388.5L76 374L75 369V373.5L69.5 387V396L59.5 397.5L58 413L56 419.5L51.5 421L59.5 428V437.5L56 444.5L57 555.5H54L50 558.5V636L47.5 638V658H45L42.5 665V819Z" fill="#FBFF49" fill-opacity="0.6" stroke="#FBFF49" stroke-width="4"/>
</svg>
