<svg width="810" height="1080" viewBox="0 0 810 1080" fill="none" xmlns="http://www.w3.org/2000/svg">
<path d="M233.5 511.5L242 491.5L247 494L379.5 503.5V499H385V503.5L418.5 507V503.5H422L425 507H440V509.5V515H447.5L453.5 530.5L466.5 567.5L468.5 523L473 509.5L521 499L523 496.5V478L525 475.5L526.5 478L528 496.5L538.5 517.5L628 526V503.5H631L632.5 532.5L665 585C665.667 584.833 666.4 585.1 664 587.5C661.6 589.9 627 588.5 610 587.5L473 573.5L466.5 577L433.5 584.5L416.5 583L346 577L348 559L231.5 550L235.5 532.5L233.5 511.5Z" fill="#FBFF49" fill-opacity="0.6" stroke="#FBFF49" stroke-width="4"/>
</svg>
