<svg width="1920" height="1080" viewBox="0 0 1920 1080" fill="none" xmlns="http://www.w3.org/2000/svg">
<g clip-path="url(#clip0)">
<path d="M1100 503.5L1091.5 486L1056 496.5L1089 462.5L1108 354.5L1129.5 151.5L1129 149C1128.83 148.333 1128.5 146.5 1128.5 144.5C1128.5 142 1129 141.5 1130.5 140.5C1131.7 139.7 1133.67 139.833 1134.5 140C1135.67 140 1138.1 140.6 1138.5 143C1139 146 1138.5 144 1138.5 147C1138.5 149.4 1136.17 151.333 1135.5 152L1141 340.5L1151.5 486L1215 564.5H1193.5L1131.5 503.5L1118 515L1082.5 621.5H1064.5L1100 503.5Z" fill="#FBFF49" fill-opacity="0.6" stroke="#FBFF49" stroke-width="4"/>
</g>
<defs>
<clipPath id="clip0">
<rect width="1920" height="1080" fill="white"/>
</clipPath>
</defs>
</svg>
